<?xml version="1.0" encoding="utf-8"?>
<!-- Generator: Adobe Illustrator 19.2.1, SVG Export Plug-In . SVG Version: 6.00 Build 0)  -->
<svg version="1.1" id="Capa_1" xmlns="http://www.w3.org/2000/svg" xmlns:xlink="http://www.w3.org/1999/xlink" x="0px" y="0px"
	 viewBox="0 0 767.3 59.7" style="enable-background:new 0 0 767.3 59.7;" xml:space="preserve">
<style type="text/css">
	.st0{fill:#FFFFFF;}
</style>
<title>logo_gd</title>
<g>
	<g>
		<path class="st0" d="M55.9,38.1h-6.4v18.2h-1c-0.4-0.5-0.9-0.9-1.5-1.2c-0.6-0.2-1.2-0.4-1.8-0.3c-1,0-2,0.3-2.9,0.8
			c-1,0.5-2.1,1.1-3.5,1.7c-1.5,0.7-3,1.3-4.6,1.7c-2.1,0.5-4.2,0.8-6.4,0.8c-3.5,0.1-6.9-0.6-10.1-1.9c-3.2-1.4-6.1-3.5-8.5-6
			c-2.7-2.7-5-5.9-6.6-9.4c-1.8-3.8-2.7-8-2.6-12.3c0-2.8,0.3-5.5,1-8.2c0.6-2.2,1.4-4.3,2.5-6.4c0.8-1.6,1.8-3.2,3-4.6
			c1-1.2,1.9-2.2,2.6-2.9c2.4-2.4,5.2-4.4,8.3-5.8c3.3-1.6,7-2.3,10.7-2.2c1.7,0,3.4,0.1,5,0.5c1.2,0.3,2.3,0.6,3.4,1.1l2.6,1.1
			c0.8,0.3,1.7,0.5,2.6,0.5C42.5,3.2,43.3,3,44,2.7c0.5-0.3,0.9-0.8,1.3-1.2h1.2v16h-0.9c-0.3-1.7-0.7-3.3-1.2-4.9
			c-0.7-1.9-1.6-3.8-2.9-5.4c-1.4-1.8-3.2-3.3-5.2-4.3C33.7,1.6,30.9,1,28,1.1c-4,0-7.2,0.8-9.7,2.5c-2.4,1.7-4.4,4-5.7,6.7
			c-1.4,2.9-2.4,6.1-2.8,9.3c-0.5,3.5-0.7,7-0.7,10.5c0,2.4,0.1,4.8,0.3,7.2c0.2,2.3,0.6,4.6,1.1,6.8c0.5,2.1,1.2,4,2.1,5.9
			c0.9,1.8,2.1,3.3,3.5,4.7c1.4,1.3,3.1,2.4,5,3c2.2,0.6,4.4,0.9,6.6,0.8c1.7,0,3.4-0.3,5-0.8c1.6-0.5,3.1-1.4,4.5-2.5
			c1.4-1.2,2.5-2.6,3.2-4.3c0.9-1.9,1.3-4,1.2-6.1v-6.7H31.4V37h24.4V38.1z"/>
		<path class="st0" d="M64,57.4h8.9V2.6H64V1.4h45.8v13.9H109c-0.6-1.9-1.4-3.7-2.2-5.5c-0.7-1.5-1.7-2.8-2.9-4
			c-1.1-1.1-2.5-1.9-4-2.4c-1.8-0.6-3.7-0.8-5.6-0.8H80.9v24.8h5.2c1.5,0,3-0.1,4.5-0.5c1.2-0.3,2.3-1,3.2-1.9c1-1,1.7-2.3,2.2-3.6
			c0.7-1.9,1.3-3.9,1.8-5.9h0.9v25h-0.9c-0.4-1.5-0.8-3-1.2-4.5c-0.4-1.4-0.9-2.7-1.7-3.9c-0.7-1.1-1.7-2-2.9-2.7
			c-1.5-0.7-3.1-1.1-4.7-1h-6.5v28.9h15.1c2.6,0.1,5.1-0.6,7.3-1.9c1.9-1.2,3.5-2.7,4.8-4.5c1.2-1.6,2.1-3.5,2.7-5.4
			c0.5-1.5,0.8-3,1.1-4.6h0.9v17.5H64V57.4z"/>
		<path class="st0" d="M127.5,29.9c-0.1-4.1,0.8-8.2,2.5-11.9c1.6-3.5,3.8-6.7,6.5-9.5c2.6-2.6,5.6-4.8,8.9-6.3
			c3.1-1.5,6.5-2.2,10-2.2c3.6,0,7.1,0.8,10.3,2.3c3.3,1.5,6.4,3.7,8.9,6.3c2.7,2.7,4.8,5.9,6.3,9.4c1.6,3.7,2.4,7.8,2.4,11.9
			c0,3.8-0.7,7.5-2.2,11c-1.4,3.5-3.4,6.7-5.9,9.5c-2.5,2.8-5.5,5.1-8.9,6.7c-3.4,1.7-7.1,2.6-10.9,2.6c-3.9,0-7.7-0.8-11.1-2.5
			c-3.4-1.6-6.4-3.9-8.9-6.6c-2.5-2.8-4.5-6-5.8-9.5C128.2,37.5,127.5,33.7,127.5,29.9 M136.7,29.9c0,4.2,0.3,8.4,1,12.6
			c0.5,3.2,1.6,6.2,3.2,9c1.4,2.3,3.4,4.2,5.8,5.4c5.6,2.3,11.9,2.3,17.4,0c2.4-1.2,4.4-3.1,5.8-5.4c1.6-2.8,2.7-5.8,3.2-9
			c0.7-4.2,1-8.4,1-12.6c0-3.6-0.2-7.2-0.7-10.7c-0.4-3.2-1.4-6.3-2.9-9.2c-1.3-2.6-3.3-4.8-5.7-6.4c-5.9-3.2-13.1-3.2-19,0
			c-2.4,1.6-4.4,3.8-5.7,6.4c-1.4,2.9-2.4,6-2.8,9.2C137,22.8,136.7,26.3,136.7,29.9"/>
		<path class="st0" d="M195.1,57.4h8.9V2.6h-8.9V1.4h15.2c0.6,0,1.3,0,1.9,0s1.3-0.1,1.9-0.1s1.3,0,1.9,0s1.3,0,1.9,0
			c2.8,0,5.6,0.1,8.3,0.5c2.5,0.4,4.8,1.4,6.7,3c1.7,1.3,3.1,2.9,4,4.9c0.7,1.6,1.1,3.4,1.2,5.1c0,1-0.2,2.1-0.4,3.1
			c-0.4,1.4-1,2.7-1.9,3.9c-1.2,1.5-2.6,2.7-4.3,3.6c-2.3,1.2-4.8,2-7.4,2.2v0.2c0.9,0.1,2,0.3,3.5,0.6c1.5,0.3,3.1,0.8,4.5,1.5
			c1.5,0.7,3,1.6,4.2,2.8c1.3,1.2,2.3,2.7,2.7,4.5c0.3,1.2,0.6,2.4,0.7,3.7c0.1,1.3,0.2,2.7,0.3,4.2c0.1,1.5,0.2,2.8,0.2,4.1
			c0.1,1.1,0.2,2.3,0.4,3.4c0.3,1.3,0.8,2.6,1.5,3.8c0.7,1.1,2,1.8,3.4,1.7c0.7,0,1.5-0.1,2.2-0.4c0.8-0.3,1.4-0.7,2-1.3l0.7,0.9
			c-0.3,0.2-0.6,0.4-0.9,0.7c-0.4,0.3-0.9,0.5-1.3,0.7c-0.6,0.2-1.3,0.4-2,0.5c-0.9,0.1-1.9,0.2-2.9,0.2c-1.8,0.1-3.6-0.2-5.3-0.8
			c-1.3-0.5-2.5-1.3-3.4-2.4c-0.9-1.1-1.5-2.4-1.9-3.8c-0.4-1.7-0.7-3.5-0.8-5.3l-0.6-7.3c-0.1-2.2-0.6-4.3-1.6-6.2
			c-0.7-1.3-1.7-2.5-3-3.3c-1.1-0.7-2.3-1.1-3.6-1.2c-1.1-0.1-2.1-0.2-3.2-0.2h-8v28.9h9v1.1h-25.9V57.4z M212.1,27.3h7.4
			c1.4,0,2.8-0.2,4.1-0.6c1.2-0.4,2.3-1.1,3.2-2c1-1.1,1.6-2.4,2-3.8c0.5-2,0.8-4,0.7-6.1c0.1-2.3-0.3-4.6-1.1-6.7
			c-0.6-1.5-1.6-2.8-2.8-3.8c-1.1-0.8-2.5-1.4-3.9-1.7c-1.4-0.3-2.8-0.4-4.2-0.4c-1,0-1.9,0-2.9,0c-0.8,0-1.7,0.1-2.5,0.2
			L212.1,27.3L212.1,27.3z"/>
		<path class="st0" d="M316.6,38.1h-6.4v18.2h-1c-0.4-0.5-0.9-0.9-1.4-1.2c-0.6-0.2-1.2-0.4-1.8-0.3c-1,0-2,0.3-2.9,0.8
			c-1,0.5-2.1,1.1-3.5,1.7c-1.5,0.7-3,1.3-4.6,1.7c-2.1,0.5-4.2,0.8-6.4,0.8c-3.5,0.1-6.9-0.6-10.1-1.9c-3.2-1.4-6.1-3.5-8.5-6
			c-2.7-2.8-5-6-6.6-9.5c-1.8-3.8-2.7-8-2.6-12.3c0-2.8,0.3-5.5,1-8.2c0.6-2.2,1.4-4.3,2.5-6.4c0.8-1.6,1.8-3.2,3-4.6
			c1.1-1.2,2.1-2.2,2.7-2.9c2.4-2.4,5.2-4.4,8.3-5.8c3.3-1.5,6.9-2.3,10.6-2.2c1.7,0,3.4,0.1,5,0.5c1.2,0.3,2.3,0.6,3.4,1.1l2.6,1.1
			c0.8,0.3,1.7,0.5,2.6,0.5c0.8,0.1,1.6-0.1,2.3-0.4c0.5-0.3,0.9-0.8,1.3-1.2h1.2v16h-0.9c-0.3-1.7-0.7-3.3-1.2-4.9
			c-0.7-1.9-1.6-3.8-2.9-5.4c-1.4-1.8-3.2-3.3-5.2-4.3c-2.6-1.3-5.4-1.9-8.3-1.8c-4,0-7.2,0.8-9.7,2.5c-2.4,1.7-4.4,4-5.7,6.6
			c-1.4,2.9-2.3,6.1-2.7,9.3c-0.5,3.5-0.7,7-0.7,10.5c0,2.4,0.1,4.8,0.3,7.2c0.2,2.3,0.6,4.6,1.1,6.8c0.5,2.1,1.2,4,2.1,5.9
			c0.9,1.8,2.1,3.3,3.5,4.7c1.4,1.3,3.1,2.4,5,3c2.2,0.6,4.4,0.9,6.6,0.8c1.7,0,3.4-0.3,5-0.8c1.6-0.5,3.1-1.4,4.5-2.5
			c1.4-1.2,2.4-2.7,3.2-4.3c0.9-1.9,1.3-4,1.2-6.1v-6.7h-10.4V37h24.4L316.6,38.1L316.6,38.1z"/>
		<path class="st0" d="M324.8,57.4h8.9V2.6h-8.9V1.4h45.8v13.9h-0.9c-0.6-1.9-1.4-3.7-2.2-5.5c-0.7-1.5-1.7-2.8-2.9-4
			c-1.1-1.1-2.5-1.9-4-2.4c-1.8-0.6-3.7-0.8-5.6-0.8h-13.3v24.8h5.2c1.5,0,3-0.1,4.5-0.5c1.2-0.3,2.3-1,3.1-1.9c1-1,1.7-2.3,2.2-3.6
			c0.7-1.9,1.3-3.9,1.8-5.9h0.9v25h-0.9c-0.4-1.5-0.8-3-1.2-4.5c-0.4-1.4-0.9-2.7-1.7-3.8c-0.7-1.1-1.7-2-2.9-2.7
			c-1.5-0.7-3.1-1.1-4.7-1h-6.5v28.9h15.1c2.6,0.1,5.1-0.6,7.3-1.9c1.9-1.2,3.5-2.7,4.8-4.5c1.2-1.6,2.1-3.5,2.7-5.4
			c0.5-1.5,0.9-3,1.1-4.6h0.9v17.5h-48.9V57.4z"/>
		<path class="st0" d="M411.5,57.4h8.9V2.6h-8.9V1.4h14.9c0.7,0,1.5,0,2.2,0c0.7,0,1.5,0,2.2-0.1c0.8,0,1.5,0,2.2,0s1.5,0,2.2,0
			c1.6,0,3,0,4.3,0.1s2.4,0.1,3.5,0.3c1.1,0.1,2.1,0.3,3.1,0.6c1,0.2,2,0.5,3.2,0.9c3,0.9,5.9,2.3,8.5,4.2c2.3,1.7,4.3,3.8,5.9,6.2
			c1.5,2.4,2.7,5,3.4,7.7c0.7,2.9,1.1,5.8,1.1,8.8c0,3.2-0.4,6.4-1.3,9.5c-0.8,2.7-2,5.2-3.5,7.5c-1.5,2.1-3.2,4-5.2,5.6
			c-2,1.6-4.1,2.8-6.5,3.8c-1.2,0.5-2.4,1-3.6,1.4c-1.2,0.3-2.3,0.6-3.5,0.7c-1.2,0.2-2.5,0.3-4,0.3s-3.1,0.1-5,0.1
			c-0.8,0-1.7,0-2.6,0s-1.8,0-2.7-0.1c-0.9-0.1-1.8-0.1-2.7-0.1s-1.7,0-2.5,0h-13.6V57.4z M428.5,57.4c0.9,0.1,2,0.2,3.2,0.2
			c1.2,0.1,2.5,0.1,4,0.1c1.8,0,3.6-0.1,5.4-0.3c1.8-0.2,3.5-0.6,5.1-1.2c1.7-0.6,3.2-1.5,4.6-2.6c1.5-1.3,2.8-2.8,3.8-4.6
			c1.7-2.7,2.9-5.7,3.6-8.9c0.7-3.3,1-6.6,1-9.9c0-3.9-0.4-7.7-1.2-11.5c-0.7-3.2-2.1-6.2-4-8.8c-1.9-2.5-4.4-4.4-7.3-5.7
			c-3.6-1.4-7.4-2.1-11.3-2c-1.3,0-2.5,0-3.6,0.1l-3.2,0.2L428.5,57.4L428.5,57.4z"/>
		<path class="st0" d="M480.9,57.4h8.9V2.6h-8.9V1.4h45.8v13.9h-0.9c-0.6-1.9-1.4-3.7-2.2-5.5c-0.7-1.5-1.7-2.8-2.9-4
			c-1.1-1.1-2.5-1.9-4-2.4c-1.8-0.6-3.7-0.8-5.6-0.8h-13.3v24.8h5.2c1.5,0,3-0.1,4.5-0.5c1.2-0.3,2.3-0.9,3.2-1.8
			c1-1,1.7-2.3,2.2-3.6c0.7-1.9,1.3-3.9,1.8-5.9h0.9v24.9h-0.9c-0.4-1.5-0.8-3-1.2-4.5c-0.4-1.4-0.9-2.7-1.7-3.8
			c-0.7-1.1-1.7-2-2.9-2.7c-1.5-0.7-3.1-1.1-4.7-1h-6.5v28.9H513c2.6,0.1,5.1-0.6,7.3-1.9c1.8-1.2,3.4-2.7,4.7-4.5
			c1.2-1.7,2.1-3.5,2.7-5.4c0.5-1.5,0.9-3,1.2-4.6h0.9v17.5h-48.9V57.4z"/>
		<polygon class="st0" points="541,57.4 549.9,57.4 549.9,2.6 541,2.6 541,1.4 559,1.4 573.8,44.6 574,44.6 588.8,1.4 606.5,1.4
			606.5,2.6 597.6,2.6 597.6,57.4 606.5,57.4 606.5,58.5 580.7,58.5 580.7,57.4 589.6,57.4 589.6,3 589.5,3 570.3,58.6 551.2,3.6
			551.1,3.6 551.1,57.4 560,57.4 560,58.5 541,58.5 		"/>
		<polygon class="st0" points="615.3,57.4 624.2,57.4 624.2,2.6 615.3,2.6 615.3,1.4 641.1,1.4 641.1,2.6 632.2,2.6 632.2,57.4
			641.1,57.4 641.1,58.5 615.3,58.5 		"/>
		<path class="st0" d="M647.6,57.4h7L676.3,0h1.9L700,57.4h7.1v1.1h-24.7v-1.1h8.9L683,35.1h-18.6L656,57.4h8.9v1.1h-17.3V57.4z
			 M673.6,10.7L664.9,34h17.6L673.6,10.7z"/>
		<polygon class="st0" points="712.8,57.4 721.7,57.4 721.7,2.6 712.8,2.6 712.8,1.4 730,1.4 757,45.1 757.2,45.1 757.2,2.6
			748.3,2.6 748.3,1.4 767.3,1.4 767.3,2.6 758.4,2.6 758.4,59.6 756.8,59.6 723.1,5.8 722.9,5.8 722.9,57.4 731.8,57.4 731.8,58.5
			712.8,58.5 		"/>
	</g>
</g>
</svg>
