<svg id="Capa_1" data-name="Capa 1" xmlns="http://www.w3.org/2000/svg" viewBox="0 0 123 123"><defs><style>.cls-1{fill:#fff;}</style></defs><title>vsco</title><path class="cls-1" d="M62,0.4a61.5,61.5,0,1,0,61.5,61.5A61.58,61.58,0,0,0,62,.4Zm59.1,61.5c0,2-.1,4.1-0.3,6.1l-10.4-1.3a38.54,38.54,0,0,0,.2-4.8c0-1.5-.1-3-0.2-4.5l10.4-1.2A54.41,54.41,0,0,1,121.1,61.9ZM2.9,61.9q0-3,.3-6l10.4,1.3c-0.1,1.5-.2,3.1-0.2,4.7s0.1,3.1.2,4.7L3.2,67.8A56.83,56.83,0,0,1,2.9,61.9ZM107.9,46l9.8-3.7a62.31,62.31,0,0,1,2.8,11.5L110,55A45.33,45.33,0,0,0,107.9,46Zm0.2,15.9a44.31,44.31,0,0,1-.9,9L96.9,68.5a35.22,35.22,0,0,0,.6-6.6,32.32,32.32,0,0,0-.7-6.9l10.4-2.3A47,47,0,0,1,108.1,61.9ZM62,95.1A33.15,33.15,0,1,1,95.1,61.9,33.14,33.14,0,0,1,62,95.1Zm1.1,13V97.5a34.44,34.44,0,0,0,13.2-3l4.6,9.6A48.21,48.21,0,0,1,63.1,108.1Zm-20.2-4.2,4.6-9.6a36.47,36.47,0,0,0,13.2,3.1V108A44.24,44.24,0,0,1,42.9,103.9Zm-27.1-42a40.78,40.78,0,0,1,1-9.3L27.1,55a32.6,32.6,0,0,0-.7,7,34.93,34.93,0,0,0,.6,6.5L16.6,70.9A54.73,54.73,0,0,1,15.8,61.9Zm45-46.1V26.4a37.38,37.38,0,0,0-13,2.9l-4.6-9.6A48.66,48.66,0,0,1,60.8,15.8Zm20.1,4.1-4.6,9.5a35.86,35.86,0,0,0-13.1-3V15.8A45.47,45.47,0,0,1,80.9,19.9ZM107,43.8a49.2,49.2,0,0,0-4.3-8.2l8.7-6a58.28,58.28,0,0,1,5.5,10.5Zm-0.3,6.6L96.3,52.7a35.87,35.87,0,0,0-5.9-12.1L98.7,34A47.28,47.28,0,0,1,106.7,50.4ZM88.9,38.8a36.3,36.3,0,0,0-10.4-8.3L83.1,21A46.9,46.9,0,0,1,97.2,32.3ZM85.8,19.6l4.9-9.3a54.54,54.54,0,0,1,9.7,6.8l-7,7.8A53.86,53.86,0,0,0,85.8,19.6Zm-2.1-1.1A41.19,41.19,0,0,0,75,15.2L77.5,5a61.23,61.23,0,0,1,11,4.3Zm-11-3.9a48.35,48.35,0,0,0-9.4-1.2V2.9A57.84,57.84,0,0,1,75.2,4.4ZM60.9,13.4a47.31,47.31,0,0,0-9.3,1.1L49.2,4.2A64.56,64.56,0,0,1,61,2.8V13.4H60.9ZM49.3,15a43.37,43.37,0,0,0-8.7,3.3L35.7,9A52.93,52.93,0,0,1,46.8,4.8ZM38.5,19.4a50.16,50.16,0,0,0-7.7,5.3l-7-7.9a54.78,54.78,0,0,1,9.8-6.7ZM41,20.8l4.6,9.6a36.72,36.72,0,0,0-10.5,8.3l-8.3-6.6A46.1,46.1,0,0,1,41,20.8ZM25.3,33.9l8.3,6.6a35.4,35.4,0,0,0-5.9,12L17.3,50.1A46.36,46.36,0,0,1,25.3,33.9ZM17,43.5L7.2,39.8a65.44,65.44,0,0,1,5.5-10.5l8.7,6A49.67,49.67,0,0,0,17,43.5Zm-0.8,2.3A44.81,44.81,0,0,0,14,54.9L3.5,53.6A56.13,56.13,0,0,1,6.3,42ZM13.9,69a54.91,54.91,0,0,0,2.2,9.1L6.3,81.8A56.13,56.13,0,0,1,3.5,70.2ZM17,80.3a50.63,50.63,0,0,0,4.4,8.3l-8.7,6A58.28,58.28,0,0,1,7.2,84.1Zm0.2-7.2,10.3-2.3A33.55,33.55,0,0,0,33.3,83L25,89.5A46,46,0,0,1,17.2,73.1ZM34.8,84.8a34.5,34.5,0,0,0,10.5,8.5l-4.6,9.6A45,45,0,0,1,26.5,91.5Zm3.6,19.6-4.9,9.3a59.7,59.7,0,0,1-9.7-6.7l7-7.9A44.91,44.91,0,0,0,38.4,104.4Zm2.2,1.1a45.79,45.79,0,0,0,8.7,3.3L46.8,119a52.93,52.93,0,0,1-11.1-4.2Zm11,3.9a47.21,47.21,0,0,0,9.2,1.1V121A65.62,65.62,0,0,1,49,119.6Zm11.7,1.1a55.1,55.1,0,0,0,9.2-1.1L75,119.6A56.73,56.73,0,0,1,63.3,121V110.5Zm11.5-1.8a45.79,45.79,0,0,0,8.7-3.3l4.9,9.3a54.25,54.25,0,0,1-11,4.2Zm10.8-4.4A44.91,44.91,0,0,0,93.2,99l7,7.9a59.7,59.7,0,0,1-9.7,6.7ZM83.1,103l-4.6-9.6a36.14,36.14,0,0,0,10.6-8.5l8.3,6.6A48.35,48.35,0,0,1,83.1,103ZM98.8,89.7L90.5,83a33.55,33.55,0,0,0,5.8-12.2l10.3,2.4a43.32,43.32,0,0,1-7.8,16.5h0Zm8.1-9.4,9.8,3.7a54.27,54.27,0,0,1-5.5,10.4l-8.6-6A44.67,44.67,0,0,0,106.9,80.3Zm0.9-2.2a45.51,45.51,0,0,0,2.2-9l10.4,1.3a62.31,62.31,0,0,1-2.8,11.5ZM110,27.6l-8.7,6a57.72,57.72,0,0,0-6.1-7l7-7.9A59.94,59.94,0,0,1,110,27.6ZM22,18.4l7,7.9a45.7,45.7,0,0,0-6.2,7l-8.6-6A59.94,59.94,0,0,1,22,18.4ZM14.1,96.5l8.7-6a51,51,0,0,0,6.2,7l-7,7.9A60.62,60.62,0,0,1,14.1,96.5Zm87.9,8.8-7-7.9a44.33,44.33,0,0,0,6.1-6.9l8.6,6A53.4,53.4,0,0,1,102,105.3Z" transform="translate(-0.5 -0.4)"/></svg>